<?xml version="1.0" standalone="no"?>
<!DOCTYPE svg PUBLIC "-//W3C//DTD SVG 20010904//EN"
 "http://www.w3.org/TR/2001/REC-SVG-20010904/DTD/svg10.dtd">
<svg version="1.0" xmlns="http://www.w3.org/2000/svg"
 width="460.000000pt" height="460.000000pt" viewBox="0 0 460.000000 460.000000"
 preserveAspectRatio="xMidYMid meet">
<metadata>
Created by potrace 1.14, written by Peter Selinger 2001-2017
</metadata>
<g transform="translate(0.000000,460.000000) scale(0.100000,-0.100000)"
fill="#000000" stroke="none">
<path d="M414 2731 c-40 -18 -74 -69 -74 -114 0 -37 114 -414 316 -1044 47
-148 65 -175 121 -189 38 -10 94 6 122 34 15 15 41 63 58 107 85 217 227 578
252 640 16 39 31 79 35 90 7 19 8 19 21 -5 13 -25 56 -133 159 -400 31 -80 65
-165 75 -190 11 -25 36 -87 57 -138 48 -121 88 -153 169 -138 73 14 77 21 205
426 65 206 122 391 125 411 20 116 -120 196 -208 119 -36 -31 -40 -43 -123
-338 -21 -73 -41 -129 -45 -125 -4 5 -18 40 -32 78 -14 39 -42 113 -63 165
-51 132 -74 193 -139 365 -31 83 -66 167 -78 187 -40 73 -141 89 -198 31 -25
-26 -79 -151 -169 -393 -106 -283 -160 -420 -170 -433 -3 -4 -17 28 -30 70
-12 43 -36 121 -51 173 -16 52 -40 136 -55 185 -14 50 -38 131 -54 180 -15 50
-33 111 -40 137 -17 64 -65 109 -122 114 -23 2 -52 0 -64 -5z"/>
<path d="M1985 2724 c-47 -24 -65 -53 -65 -107 0 -65 24 -103 77 -123 68 -26
129 -1 165 70 18 35 19 44 8 76 -30 86 -111 123 -185 84z"/>
<path d="M2652 2726 c-13 -7 -32 -26 -43 -42 -18 -28 -19 -53 -19 -622 0 -655
-2 -635 64 -666 46 -22 92 -20 132 5 56 34 59 46 64 274 l5 210 25 -25 c14
-14 90 -95 170 -180 80 -85 172 -183 204 -218 65 -68 110 -89 170 -78 71 14
116 105 87 178 -5 13 -120 136 -256 273 l-246 250 89 85 c101 97 112 113 112
170 0 72 -21 97 -104 124 -41 14 -94 -16 -173 -97 l-78 -81 -5 185 c-5 202
-12 224 -71 255 -34 17 -96 18 -127 0z"/>
<path d="M3288 2724 c-55 -29 -76 -125 -41 -184 45 -78 185 -74 221 6 17 36
15 111 -4 140 -34 51 -119 70 -176 38z"/>
</g>
</svg>
